solid OpenSCAD_Model
  facet normal 0 0 -1
    outer loop
      vertex -6.75 -6.693 0
      vertex 7.25 7.307 0
      vertex 7.25 -6.693 0
    endloop
  endfacet
  facet normal -0 0 -1
    outer loop
      vertex 7.25 7.307 0
      vertex -6.75 -6.693 0
      vertex -6.75 7.307 0
    endloop
  endfacet
  facet normal 1 -0 0
    outer loop
      vertex 7.25 -6.693 6
      vertex 7.25 7.307 0
      vertex 7.25 7.307 6
    endloop
  endfacet
  facet normal 1 0 0
    outer loop
      vertex 7.25 7.307 0
      vertex 7.25 -6.693 6
      vertex 7.25 -6.693 0
    endloop
  endfacet
  facet normal -1 0 0
    outer loop
      vertex -6.75 -6.693 0
      vertex -6.75 7.307 6
      vertex -6.75 7.307 0
    endloop
  endfacet
  facet normal -1 -0 0
    outer loop
      vertex -6.75 7.307 6
      vertex -6.75 -6.693 0
      vertex -6.75 -6.693 6
    endloop
  endfacet
  facet normal 0 -1 0
    outer loop
      vertex -6.75 -6.693 0
      vertex 7.25 -6.693 6
      vertex -6.75 -6.693 6
    endloop
  endfacet
  facet normal 0 -1 -0
    outer loop
      vertex 7.25 -6.693 6
      vertex -6.75 -6.693 0
      vertex 7.25 -6.693 0
    endloop
  endfacet
  facet normal 0 1 -0
    outer loop
      vertex 7.25 7.307 0
      vertex -6.75 7.307 6
      vertex 7.25 7.307 6
    endloop
  endfacet
  facet normal 0 1 0
    outer loop
      vertex -6.75 7.307 6
      vertex 7.25 7.307 0
      vertex -6.75 7.307 0
    endloop
  endfacet
  facet normal 0 0 1
    outer loop
      vertex 7.25 7.307 6
      vertex 5.8 0.25 6
      vertex 7.25 -6.693 6
    endloop
  endfacet
  facet normal 0 0 1
    outer loop
      vertex 7.25 7.307 6
      vertex 3.025 5.05644 6
      vertex 5.8 0.25 6
    endloop
  endfacet
  facet normal 0 0 1
    outer loop
      vertex 7.25 7.307 6
      vertex -2.525 5.05644 6
      vertex 3.025 5.05644 6
    endloop
  endfacet
  facet normal 0 0 1
    outer loop
      vertex -2.525 5.05644 6
      vertex -6.75 7.307 6
      vertex -5.3 0.25 6
    endloop
  endfacet
  facet normal -0 0 1
    outer loop
      vertex -6.75 7.307 6
      vertex -2.525 5.05644 6
      vertex 7.25 7.307 6
    endloop
  endfacet
  facet normal -0 0 1
    outer loop
      vertex 3.025 -4.55644 6
      vertex 7.25 -6.693 6
      vertex 5.8 0.25 6
    endloop
  endfacet
  facet normal -0 0 1
    outer loop
      vertex -2.525 -4.55644 6
      vertex 7.25 -6.693 6
      vertex 3.025 -4.55644 6
    endloop
  endfacet
  facet normal 0 0 1
    outer loop
      vertex -2.525 -4.55644 6
      vertex -6.75 -6.693 6
      vertex 7.25 -6.693 6
    endloop
  endfacet
  facet normal 0 0 1
    outer loop
      vertex -5.3 0.25 6
      vertex -6.75 -6.693 6
      vertex -2.525 -4.55644 6
    endloop
  endfacet
  facet normal 0 0 1
    outer loop
      vertex -6.75 -6.693 6
      vertex -5.3 0.25 6
      vertex -6.75 7.307 6
    endloop
  endfacet
  facet normal 0 1 -0
    outer loop
      vertex 3.025 -4.55644 1
      vertex -2.525 -4.55644 6
      vertex 3.025 -4.55644 6
    endloop
  endfacet
  facet normal 0 1 0
    outer loop
      vertex -2.525 -4.55644 6
      vertex 3.025 -4.55644 1
      vertex -2.525 -4.55644 1
    endloop
  endfacet
  facet normal -0.866025 0.5 0
    outer loop
      vertex 3.025 -4.55644 1
      vertex 5.8 0.25 6
      vertex 5.8 0.25 1
    endloop
  endfacet
  facet normal -0.866025 0.5 0
    outer loop
      vertex 5.8 0.25 6
      vertex 3.025 -4.55644 1
      vertex 3.025 -4.55644 6
    endloop
  endfacet
  facet normal 0 0 1
    outer loop
      vertex 3.025 5.05644 1
      vertex 3.025 -4.55644 1
      vertex 5.8 0.25 1
    endloop
  endfacet
  facet normal -0 0 1
    outer loop
      vertex -2.525 5.05644 1
      vertex 3.025 -4.55644 1
      vertex 3.025 5.05644 1
    endloop
  endfacet
  facet normal 0 0 1
    outer loop
      vertex -2.525 5.05644 1
      vertex -2.525 -4.55644 1
      vertex 3.025 -4.55644 1
    endloop
  endfacet
  facet normal 0 -0 1
    outer loop
      vertex -2.525 -4.55644 1
      vertex -2.525 5.05644 1
      vertex -5.3 0.25 1
    endloop
  endfacet
  facet normal -0.866025 -0.5 0
    outer loop
      vertex 5.8 0.25 1
      vertex 3.025 5.05644 6
      vertex 3.025 5.05644 1
    endloop
  endfacet
  facet normal -0.866025 -0.5 0
    outer loop
      vertex 3.025 5.05644 6
      vertex 5.8 0.25 1
      vertex 5.8 0.25 6
    endloop
  endfacet
  facet normal 0.866025 0.5 0
    outer loop
      vertex -2.525 -4.55644 6
      vertex -5.3 0.25 1
      vertex -5.3 0.25 6
    endloop
  endfacet
  facet normal 0.866025 0.5 0
    outer loop
      vertex -5.3 0.25 1
      vertex -2.525 -4.55644 6
      vertex -2.525 -4.55644 1
    endloop
  endfacet
  facet normal 0.866025 -0.5 0
    outer loop
      vertex -5.3 0.25 6
      vertex -2.525 5.05644 1
      vertex -2.525 5.05644 6
    endloop
  endfacet
  facet normal 0.866025 -0.5 0
    outer loop
      vertex -2.525 5.05644 1
      vertex -5.3 0.25 6
      vertex -5.3 0.25 1
    endloop
  endfacet
  facet normal 0 -1 0
    outer loop
      vertex -2.525 5.05644 1
      vertex 3.025 5.05644 6
      vertex -2.525 5.05644 6
    endloop
  endfacet
  facet normal 0 -1 -0
    outer loop
      vertex 3.025 5.05644 6
      vertex -2.525 5.05644 1
      vertex 3.025 5.05644 1
    endloop
  endfacet
endsolid OpenSCAD_Model
